inDegrees=yes
name=ik_S47_A08_T01
DataType=double
version=3
OpenSimVersion=4.3-2021-08-27-4bc7ad9
endheader
time	pelvis_tilt	pelvis_list	pelvis_rotation	pelvis_tx	pelvis_ty	pelvis_tz	hip_flexion_r	hip_adduction_r	hip_rotation_r	knee_angle_r	knee_angle_r_beta	ankle_angle_r	subtalar_angle_r	mtp_angle_r	hip_flexion_l	hip_adduction_l	hip_rotation_l	knee_angle_l	knee_angle_l_beta	ankle_angle_l	subtalar_angle_l	mtp_angle_l	lumbar_extension	lumbar_bending	lumbar_rotation	arm_flex_r	arm_add_r	arm_rot_r	elbow_flex_r	pro_sup_r	wrist_flex_r	wrist_dev_r	arm_flex_l	arm_add_l	arm_rot_l	elbow_flex_l	pro_sup_l	wrist_flex_l	wrist_dev_l
18.3199999999997	-13.86582279537538	-5.360275952347842	38.9474488391435	0	0.9399999999999999	0	42.0244771023585	-10.42102485287147	-10.28869104277747	52.2004176505542	0.9110691589183336	0	0	0	42.0244771023585	-10.42102485287147	-10.28869104277747	52.2004176505542	0.9110691589183336	0	0	0	-15.20089945948036	5.235054552034236	-11.62959448369025	49.7075551730485	-0.1297087996671094	21.47879123790494	33.35029571333477	106.4531907850937	0	0	80.15261992580913	-2.788910897796626	23.96347768367177	40.78477950884785	62.20372346993016	0	0
18.3399999999997	-13.86177895925917	-5.328160034698465	38.77023155888622	0	0.9399999999999999	0	42.02637147610506	-10.42009468537559	-10.28828121096495	52.2016165580857	0.9110900838021853	0	0	0	42.02637147610506	-10.42009468537559	-10.28828121096495	52.2016165580857	0.9110900838021853	0	0	0	-15.17411956255427	5.228373233515685	-11.54244203294112	49.68375995350723	-0.09926510366283303	21.43972168098607	33.33204166953092	106.5769922650008	0	0	80.22237463707624	-3.017944235620689	23.87828727435282	43.17186818296889	62.62766061865469	0	0
18.3599999999997	-13.72999387981328	-5.303025278364776	39.56956609062267	0	0.9399999999999999	0	42.11284479530568	-10.3918015461791	-10.27372114664666	52.27367448094935	0.912347731808304	0	0	0	42.11284479530568	-10.3918015461791	-10.27372114664666	52.27367448094935	0.912347731808304	0	0	0	-15.10998062428627	5.501776794401599	-12.31361054576716	49.57768957114224	-0.1015184684297778	21.32862797363768	33.4449564038493	106.5852279330213	0	0	78.15717155217888	-4.670925293295267	18.87440322324481	49.946976880641	68.96630050363308	0	0
18.3799999999997	-13.66165900711045	-5.260984972767091	40.01821363200016	0	0.9399999999999999	0	42.11397986425384	-10.39126792962359	-10.27348146337611	52.2743968187096	0.9123603389805319	0	0	0	42.11397986425384	-10.39126792962359	-10.27348146337611	52.2743968187096	0.9123603389805319	0	0	0	-15.06037296398806	5.634630759825694	-12.74500904328459	49.52625802397349	-0.1011058019824232	21.22597403550619	33.41727711902423	106.6777300881949	0	0	76.6065843645691	-5.689951076163325	16.79535018468709	53.8676755396726	72.09546314754652	0	0
18.3999999999997	-13.59470411944208	-5.223478879250721	40.49446997143126	0	0.9399999999999999	0	42.11558077091572	-10.39051336213341	-10.27314277222309	52.27541222310103	0.9123780611304015	0	0	0	42.11558077091572	-10.39051336213341	-10.27314277222309	52.27541222310103	0.9123780611304015	0	0	0	-15.01056703745176	5.752817509378848	-13.1492514520283	49.41379726195357	-0.1815580822238965	21.07388235743472	33.49837655449562	106.7364133548281	0	0	74.85177844372151	-6.775919711663698	15.1327949632823	57.91374279389952	74.89182501585569	0	0
18.4199999999997	-13.57432361831319	-5.226461340120461	40.79660847235533	0	0.9399999999999999	0	42.11738505520443	-10.3896605772128	-10.27276027206743	52.27655242169551	0.9123979613500018	0	0	0	42.11738505520443	-10.3896605772128	-10.27276027206743	52.27655242169551	0.9123979613500018	0	0	0	-15.00995513513283	5.81503379311216	-13.37801930750408	49.36791975440412	-0.2419711568522898	20.90228912307838	33.61776725769602	106.7886221689095	0	0	72.86848513620673	-7.924124352133093	13.95007252878811	60.1736470404423	75.30047465831156	0	0
18.4399999999997	-13.53512169804579	-5.235342714102551	41.11054056716212	0	0.9399999999999999	0	42.11880560614922	-10.38899177000554	-10.27245982111086	52.27745232898063	0.9124136676950898	0	0	0	42.11880560614922	-10.38899177000554	-10.27245982111086	52.27745232898063	0.9124136676950898	0	0	0	-14.99509934204056	5.845102126788121	-13.5469970420028	49.29283228500473	-0.3364390494426581	20.71877884981027	33.70034178205465	106.8252811433977	0	0	70.52123100233118	-8.940613313478776	13.4851072200202	62.61670587206152	75.51519881071539	0	0
18.4599999999997	-13.4437105423176	-5.254208876757821	41.74744060654321	0	0.9399999999999999	0	42.1205365082609	-10.38818508121191	-10.27209610328971	52.27855822885545	0.9124329692891029	0	0	0	42.1205365082609	-10.38818508121191	-10.27209610328971	52.27855822885545	0.9124329692891029	0	0	0	-14.98909594618481	5.915326951948096	-13.97155466563906	49.24389500182399	-0.3475467826226133	20.49794517973304	33.72619612709141	106.8068667360928	0	0	67.76802957759533	-10.16788646286475	13.69727004872156	68.79893091377797	80.13857853544813	0	0
18.47999999999969	-13.36318269084209	-5.34355234088902	42.27919135303132	0	0.9399999999999999	0	42.12219227452724	-10.38740717903952	-10.27174623258995	52.27960686103822	0.9124512713733345	0	0	0	42.12219227452724	-10.38740717903952	-10.27174623258995	52.27960686103822	0.9124512713733345	0	0	0	-14.98545864415015	5.81051005720144	-14.02879663712	49.11030988617524	-0.4937513035516318	19.97491261737517	33.86770291687244	106.7932451044792	0	0	64.84293374736343	-11.16339360173711	14.00589343812255	71.95123638477916	80.21043647801659	0	0
18.49999999999969	-13.3294844721108	-5.374413880294995	42.77993943133045	0	0.9399999999999999	0	42.12358250796281	-10.386758835034	-10.27145383691213	52.2804925143858	0.9124667289402811	0	0	0	42.12358250796281	-10.386758835034	-10.27145383691213	52.2804925143858	0.9124667289402811	0	0	0	-15.00571267926064	5.843892557836771	-14.2732249727245	49.00207647055655	-0.7200701787166676	19.88650380610445	34.07147977769451	106.6545422426544	0	0	61.83600083818678	-12.15536064055587	14.22863222827794	75.95978542863027	84.89852348901995	0	0
18.51999999999969	-13.28886378149906	-5.411566282633142	43.13624311283636	0	0.9399999999999999	0	42.12489581647814	-10.38614451399954	-10.27117701863995	52.28132604781727	0.9124812768430857	0	0	0	42.12489581647814	-10.38614451399954	-10.27117701863995	52.28132604781727	0.9124812768430857	0	0	0	-15.00586018422048	5.824897798580018	-14.38021086429149	48.92088145977838	-0.8400057043218621	19.74393155712937	34.21075491918422	106.6027636676142	0	0	58.78235130148217	-12.84072233942066	14.0623028902496	78.76582773448533	85.59196791938756	0	0
